<svg width="38" height="38" viewBox="0 0 38 38" fill="none" xmlns="http://www.w3.org/2000/svg">
<circle cx="19" cy="19" r="18" fill="#F0F2F5" stroke="#6C63FF" stroke-width="2"/>
<path d="M24.006 12.4C24.006 9.9734 21.7608 8 19 8C16.2392 8 13.994 9.9734 13.994 12.4C13.994 14.8266 16.2392 16.8 19 16.8C21.7608 16.8 24.006 14.8266 24.006 12.4ZM10 25.7005V27.8C10 29.0129 11.123 30 12.503 30H25.497C26.877 30 28 29.0129 28 27.8V25.7005C28 21.3379 23.9626 17.79 19 17.79C14.0374 17.79 10 21.3379 10 25.7005Z" fill="#6C63FF"/>
</svg>
